<svg width="24" height="24" viewBox="0 0 24 24" fill="none" xmlns="http://www.w3.org/2000/svg">
    <g clip-path="url(#clip0_800_5975)">
        <rect width="16" height="16" rx="4" fill="#627EEA"/>
        <g clip-path="url(#clip1_800_5975)">
            <path d="M8 16C12.4183 16 16 12.4183 16 8C16 3.58172 12.4183 0 8 0C3.58172 0 0 3.58172 0 8C0 12.4183 3.58172 16 8 16Z" fill="#627EEA"/>
            <path d="M8.24902 2V6.435L11.9975 8.11L8.24902 2Z" fill="white" fill-opacity="0.602"/>
            <path d="M8.249 2L4.5 8.11L8.249 6.435V2Z" fill="white"/>
            <path d="M8.24902 10.9841V13.9976L12 8.80811L8.24902 10.9841Z" fill="white" fill-opacity="0.602"/>
            <path d="M8.249 13.9976V10.9836L4.5 8.80811L8.249 13.9976Z" fill="white"/>
            <path d="M8.24902 10.2865L11.9975 8.11004L8.24902 6.43604V10.2865Z" fill="white" fill-opacity="0.2"/>
            <path d="M4.5 8.11004L8.249 10.2865V6.43604L4.5 8.11004Z" fill="white" fill-opacity="0.602"/>
        </g>
    </g>
    <rect x="8" y="8" width="16" height="16" rx="4" fill="#F0B90B"/>
    <path d="M12.703 15.9785L11.3515 17.3252L10 15.9785L11.3515 14.6319L12.703 15.9785ZM16 12.6933L18.3168 15.0166L19.6683 13.67L17.3515 11.3466L16 10L14.6485 11.3466L12.3168 13.67L13.6683 15.0166L16 12.6933ZM20.6485 14.6319L19.297 15.9785L20.6485 17.3252C21.1763 16.7993 21.4722 16.5044 22 15.9785L20.6485 14.6319ZM16 19.2489L13.6832 16.9404L12.3168 18.2871L14.6337 20.5956L15.9852 21.9422L17.3366 20.5956L19.6683 18.2871L18.3168 16.9404L16 19.2489ZM16 17.3252L17.3515 15.9785L16 14.6319L14.6485 15.9785L16 17.3252Z" fill="white"/>
    <defs>
        <clipPath id="clip0_800_5975">
            <rect width="16" height="16" rx="4" fill="white"/>
        </clipPath>
        <clipPath id="clip1_800_5975">
            <rect width="16" height="16" fill="white"/>
        </clipPath>
    </defs>
</svg>
