<svg width="23" height="24" viewBox="0 0 23 24" fill="none" xmlns="http://www.w3.org/2000/svg">
<rect y="0.5" width="11" height="11" rx="2" fill="#627EEA"/>
<g clip-path="url(#clip0_723_6838)">
<path d="M5.5 11.5C8.53757 11.5 11 9.03757 11 6C11 2.96243 8.53757 0.5 5.5 0.5C2.46243 0.5 0 2.96243 0 6C0 9.03757 2.46243 11.5 5.5 11.5Z" fill="#627EEA"/>
<path d="M5.67139 1.875V4.92406L8.24848 6.07562L5.67139 1.875Z" fill="white" fill-opacity="0.602"/>
<path d="M5.67119 1.875L3.09375 6.07562L5.67119 4.92406V1.875Z" fill="white"/>
<path d="M5.67139 8.05154V10.1233L8.2502 6.55554L5.67139 8.05154Z" fill="white" fill-opacity="0.602"/>
<path d="M5.67119 10.1233V8.0512L3.09375 6.55554L5.67119 10.1233Z" fill="white"/>
<path d="M5.67139 7.57202L8.24848 6.07568L5.67139 4.9248V7.57202Z" fill="white" fill-opacity="0.2"/>
<path d="M3.09375 6.07568L5.67119 7.57202V4.9248L3.09375 6.07568Z" fill="white" fill-opacity="0.602"/>
</g>
<rect x="12" y="0.5" width="11" height="11" rx="2" fill="black"/>
<g clip-path="url(#clip1_723_6838)">
<path d="M23 6C23 2.96243 20.5376 0.5 17.5 0.5C14.4624 0.5 12 2.96243 12 6C12 9.03757 14.4624 11.5 17.5 11.5C20.5376 11.5 23 9.03757 23 6Z" fill="black"/>
<path d="M17.8108 5.99741L20.386 4.62611L19.9535 3.80005L17.5942 4.74803C17.5336 4.77256 17.466 4.77256 17.4054 4.74803L15.0461 3.80005L14.6123 4.62879L17.1875 6.00005L14.6123 7.37131L15.0461 8.20005L17.4054 7.24481C17.466 7.22028 17.5336 7.22028 17.5942 7.24481L19.9535 8.19543L20.3873 7.36669L17.8108 5.99741Z" fill="#23F7DD"/>
</g>
<rect y="12.5" width="11" height="11" rx="2" fill="#F0B90B"/>
<path d="M3.23329 17.9852L2.30414 18.9111L1.375 17.9852L2.30414 17.0594L3.23329 17.9852ZM5.49998 15.7266L7.09281 17.3239L8.02198 16.3981L6.42916 14.8008L5.49998 13.875L4.57085 14.8008L2.96782 16.3981L3.89697 17.3239L5.49998 15.7266ZM8.69586 17.0594L7.76669 17.9852L8.69586 18.9111C9.05871 18.5495 9.26215 18.3468 9.625 17.9852L8.69586 17.0594ZM5.49998 20.2336L3.90718 18.6465L2.96782 19.5724L4.56064 21.1595L5.48979 22.0853L6.41893 21.1595L8.02198 19.5724L7.09281 18.6465L5.49998 20.2336ZM5.49998 18.9111L6.42916 17.9852L5.49998 17.0594L4.57085 17.9852L5.49998 18.9111Z" fill="white"/>
<rect x="12" y="12.5" width="11" height="11" rx="2" fill="#6C00F6"/>
<path d="M16.5629 16.8768L15.7972 16.4553L13.5 17.7197V20.2399L15.7972 21.5L18.0943 20.2399V16.3206L19.369 15.621L20.6437 16.3206V17.7197L19.369 18.4193L18.6033 17.9978V19.1189L19.369 19.5403L21.6662 18.2803V15.7601L19.369 14.5L17.0718 15.7601V19.6794L15.7972 20.379L14.5225 19.6794V18.2759L15.7972 17.5764L16.5629 17.9978V16.8768Z" fill="white"/>
<defs>
<clipPath id="clip0_723_6838">
<rect width="11" height="11" fill="white" transform="translate(0 0.5)"/>
</clipPath>
<clipPath id="clip1_723_6838">
<rect width="11" height="11" fill="white" transform="translate(12 0.5)"/>
</clipPath>
</defs>
</svg>
