<svg width="20" height="20" viewBox="0 0 20 20" fill="none" xmlns="http://www.w3.org/2000/svg">
    <rect x="1" y="1" width="18" height="18" rx="5" fill="#F3BA2F"/>
    <rect x="1" y="1" width="18" height="18" rx="5" stroke="#1E1F25" stroke-width="2"/>
    <g clip-path="url(#clip0_370_27216)">
        <path d="M10.0001 16.4C13.5347 16.4 16.4001 13.5346 16.4001 9.99998C16.4001 6.46535 13.5347 3.59998 10.0001 3.59998C6.46548 3.59998 3.6001 6.46535 3.6001 9.99998C3.6001 13.5346 6.46548 16.4 10.0001 16.4Z" fill="#F3BA2F"/>
        <path d="M8.4464 9.3616L10 7.808L11.5544 9.3624L12.4584 8.4584L10 6L7.5424 8.4576L8.4464 9.3616ZM6 10L6.904 9.096L7.808 10L6.904 10.904L6 10ZM8.4464 10.6384L10 12.192L11.5544 10.6376L12.4584 11.5412L10 14L7.5424 11.5424L7.5412 11.5412L8.4464 10.6384ZM12.192 10L13.096 9.096L14 10L13.096 10.904L12.192 10ZM10.9168 9.9992H10.9176V10L10 10.9176L9.0836 10.0016L9.082 10L9.0836 9.9988L9.244 9.838L9.322 9.76L10 9.0824L10.9172 9.9996L10.9168 9.9992Z" fill="white"/>
    </g>
    <defs>
        <clipPath id="clip0_370_27216">
            <rect width="12.8" height="12.8" fill="white" transform="translate(3.6001 3.59998)"/>
        </clipPath>
    </defs>
</svg>
