<svg width="24" height="24" viewBox="0 0 24 24" fill="none" xmlns="http://www.w3.org/2000/svg">
    <rect width="24" height="24" rx="4" fill="#F0B90B"/>
    <path d="M7.05446 11.9678L5.02722 13.9878L3 11.9678L5.02722 9.94781L7.05446 11.9678ZM12 7.03994L15.4752 10.5249L17.5025 8.50498L14.0273 5.01997L12 3L9.97277 5.01997L6.47524 8.50498L8.50248 10.5249L12 7.03994ZM18.9728 9.94781L16.9455 11.9678L18.9728 13.9878C19.7645 13.1989 20.2083 12.7566 21 11.9678L18.9728 9.94781ZM12 16.8734L8.52475 13.4106L6.47524 15.4306L9.9505 18.8934L11.9777 20.9134L14.0049 18.8934L17.5025 15.4306L15.4752 13.4106L12 16.8734ZM12 13.9878L14.0273 11.9678L12 9.94781L9.97277 11.9678L12 13.9878Z" fill="white"/>
</svg>
