<svg class="svg-icon" style="width: 1em; height: 1em;vertical-align: middle;fill: currentColor;overflow: hidden;" viewBox="0 0 1024 1024" version="1.1" xmlns="http://www.w3.org/2000/svg"><path d="M512 32a480 480 0 1 0 480 480A480 480 0 0 0 512 32z m45.12 715.52v25.6a48 48 0 0 1-96 0v-25.92a368.64 368.64 0 0 1-96-26.24 56.64 56.64 0 0 1 18.88-109.44 500.8 500.8 0 0 0 124.48 25.92c68.8 0 68.8-24 68.8-34.24 0-17.28-47.68-24.64-75.2-32-67.52-16.96-169.6-43.52-169.6-148.16a149.44 149.44 0 0 1 128-144.32v-27.84a48 48 0 0 1 96 0v24.96A340.48 340.48 0 0 1 640 294.4a56.32 56.32 0 0 1-17.92 109.12 448 448 0 0 0-102.08-17.92c-32 0-70.72 8.96-70.72 33.6 0 16.64 23.04 24.96 78.4 38.08 65.92 16 165.76 39.68 165.76 149.12 0.96 73.6-53.44 127.36-136.32 141.12z" fill="#231F20" /></svg>