<svg width="256" height="256" viewBox="0 0 256 256" fill="none" xmlns="http://www.w3.org/2000/svg">
    <path d="M128.625 63.3125C128.312 63 127.688 63 127.062 63.3125L102.375 72.6875L128 82.375L153.312 72.6875L128.625 63.3125ZM95.5 113.938L120.5 123.312V95.5L95.5 85.8125V113.938ZM135.5 123.312L160.5 113.938V85.8125L135.5 95.5V123.312ZM128 191.125L92.375 206.75C88 208.625 82.6875 208.625 78.3125 206.75L48.3125 193.625C42.0625 190.812 38 184.562 38 177.375V140.188C38 133 42.375 126.438 49.25 123.938L79.25 112.375C79.5625 112.375 79.875 112.062 80.5 112.062V77.0625C80.5 69.875 84.875 63.3125 91.75 60.8125L121.75 49.25C125.5 47.6875 130.188 47.6875 133.938 49.25L163.938 60.8125C170.812 63.3125 175.5 69.875 175.5 77.0625V112.062C175.812 112.375 176.125 112.375 176.438 112.375L206.438 123.938C213.312 126.438 218 133 218 140.188V177.375C218 184.562 213.625 190.812 207.375 193.625L177.375 206.75C173 208.625 167.688 208.625 163.312 206.75L128 191.125ZM84.5625 126.438L59.875 135.812L85.5 145.5L110.812 135.812L86.125 126.438C85.8125 126.438 85.1875 126.438 84.5625 126.438ZM93 158.625V190.188L118 179.25V149.25L93 158.625ZM78 158.625L53 149.25V177.375C53 178.625 53.3125 179.25 54.25 179.875L78 190.188V158.625ZM169.562 126.438L144.875 135.812L170.5 145.5L195.812 135.812L171.125 126.438C170.812 126.438 170.188 126.438 169.562 126.438ZM178 190.188L201.438 179.875C202.375 179.25 203 178.312 203 177.375V149.25L178 158.625V190.188ZM163 158.625L138 149.25V179.25L163 190.188V158.625Z" fill="#9195A3"/>
    <path opacity="0.4" d="M95.5 85.8125L120.5 95.5V123.312L95.5 113.938V85.8125ZM160.5 113.938L135.5 123.312V95.5L160.5 85.8125V113.938ZM118 149.25V179.25L93 190.188V158.625L118 149.25ZM53 149.25L78 158.625V190.188L54.25 179.875C53.3125 179.25 53 178.625 53 177.375V149.25ZM178 158.625L203 149.25V177.375C203 178.312 202.375 179.25 201.438 179.875L178 190.188V158.625ZM163 190.188L138 179.25V149.25L163 158.625V190.188Z" fill="#9195A3"/>
</svg>
