<svg width="20" height="20" viewBox="0 0 20 20" fill="none" xmlns="http://www.w3.org/2000/svg">
  <rect x="1" y="1" width="18" height="18" rx="5" fill="#627EEA"/>
  <rect x="1" y="1" width="18" height="18" rx="5" stroke="#1E1F25" stroke-width="2"/>
  <g clip-path="url(#clip0_370_27208)">
    <path d="M10.0001 16.4C13.5347 16.4 16.4001 13.5346 16.4001 9.99998C16.4001 6.46535 13.5347 3.59998 10.0001 3.59998C6.46548 3.59998 3.6001 6.46535 3.6001 9.99998C3.6001 13.5346 6.46548 16.4 10.0001 16.4Z" fill="#627EEA"/>
    <path d="M10.1992 5.19995V8.74795L13.198 10.088L10.1992 5.19995Z" fill="white" fill-opacity="0.602"/>
    <path d="M10.1994 5.19995L7.2002 10.088L10.1994 8.74795V5.19995Z" fill="white"/>
    <path d="M10.1992 12.3872V14.798L13.2 10.6464L10.1992 12.3872Z" fill="white" fill-opacity="0.602"/>
    <path d="M10.1994 14.798V12.3868L7.2002 10.6464L10.1994 14.798Z" fill="white"/>
    <path d="M10.1992 11.8292L13.198 10.088L10.1992 8.74878V11.8292Z" fill="white" fill-opacity="0.2"/>
    <path d="M7.2002 10.088L10.1994 11.8292V8.74878L7.2002 10.088Z" fill="white" fill-opacity="0.602"/>
  </g>
  <defs>
    <clipPath id="clip0_370_27208">
      <rect width="12.8" height="12.8" fill="white" transform="translate(3.6001 3.59998)"/>
    </clipPath>
  </defs>
</svg>
