<svg width="23" height="23" viewBox="0 0 23 23" fill="none" xmlns="http://www.w3.org/2000/svg">
    <rect width="23" height="23" rx="11.5" fill="#14151A"/>
    <circle cx="11.5" cy="7" r="1" fill="#737373"/>
    <circle cx="11.5" cy="10" r="1" fill="#737373"/>
    <path d="M11.4297 16.1641L8.89844 13.6328C8.86328 13.5977 8.86328 13.5391 8.89844 13.5039C8.93359 13.4688 8.99219 13.4688 9.02734 13.5039L11.5 15.9648L13.9609 13.5039C13.9961 13.4688 14.0547 13.4688 14.0898 13.5039C14.125 13.5391 14.125 13.5977 14.0898 13.6328L11.5586 16.1641C11.5234 16.1992 11.4648 16.1992 11.4297 16.1641Z" fill="#737373"/>
    <path d="M9.02734 13.5039L8.67379 13.8575L8.67463 13.8583L9.02734 13.5039ZM11.5 15.9648L11.1473 16.3192L11.5008 16.6711L11.8536 16.3184L11.5 15.9648ZM11.7832 15.8105L9.25199 13.2793L8.54488 13.9864L11.0761 16.5176L11.7832 15.8105ZM9.25199 13.2793C9.4121 13.4394 9.4121 13.6974 9.25199 13.8575L8.54488 13.1504C8.31447 13.3808 8.31447 13.7559 8.54488 13.9864L9.25199 13.2793ZM9.25199 13.8575C9.09189 14.0176 8.8339 14.0176 8.67379 13.8575L9.3809 13.1504C9.15048 12.9199 8.7753 12.9199 8.54488 13.1504L9.25199 13.8575ZM8.67463 13.8583L11.1473 16.3192L11.8527 15.6105L9.38006 13.1495L8.67463 13.8583ZM11.8536 16.3184L14.3145 13.8575L13.6074 13.1504L11.1464 15.6113L11.8536 16.3184ZM14.3145 13.8575C14.1544 14.0176 13.8964 14.0176 13.7363 13.8575L14.4434 13.1504C14.213 12.9199 13.8378 12.9199 13.6074 13.1504L14.3145 13.8575ZM13.7363 13.8575C13.5762 13.6974 13.5762 13.4394 13.7363 13.2793L14.4434 13.9864C14.6738 13.7559 14.6738 13.3808 14.4434 13.1504L13.7363 13.8575ZM13.7363 13.2793L11.205 15.8105L11.9121 16.5176L14.4434 13.9864L13.7363 13.2793ZM11.205 15.8105C11.3651 15.6504 11.6231 15.6504 11.7832 15.8105L11.0761 16.5176C11.3066 16.748 11.6817 16.748 11.9121 16.5176L11.205 15.8105Z" fill="#737373"/>
</svg>
